<svg aria-labelledby="LPNU_logo_UK_desc" fill="#312783" role="img" viewBox="0 0 298.87 283.46" xmlns="http://www.w3.org/2000/svg"><desc id="LPNU_logo_UK_desc">Офіційний логотип Львівської політехніки — стилізоване зображення фасаду головного корпусу університету, оздоблене вигнутою стрічкою з латинським написом «Litteris et Artibvs», що в перекладі означає «Науками й Мистецтвом». У верхній частині логотипу зазначено рік заснування університету — 1816.</desc><g fill="currentColor"><path d="M10.4 138.6c-.2 1.27-.63 1.23-1.5 1.18l-6.2-.36c-.87 0-1.3-.06-1.35-1.34v-.34h-.6v2.18l-.18 1.2c0 .37-.06.75-.1 1.12L.4 143.3h.58L1 143c.2-1.27.62-1.23 1.5-1.18l2.63.15-.27 4.6-2.63-.15c-.87-.05-1.3-.06-1.35-1.34v-.34H.3v2.18l-.13 1.17c0 .37-.06.75-.1 1.12l-.08 1.06h.58l.07-.28c.2-1.27.62-1.23 1.5-1.18l6.2.36c.87.05 1.3.06 1.35 1.34v.34h.6v-2.18l.07-1.23c0-.37.06-.75.1-1.12l.08-1.06h-.58l-.05.34c-.2 1.27-.63 1.23-1.5 1.17l-2.8-.16.35-4.62 2.8.16c.87.05 1.3.06 1.35 1.34v.34h.58v-2.18l.07-1.23c0-.37.06-.75.1-1.12l.08-1.06h-.58zm1.33-17.23L2.9 123l-.15.74 6.93 4.67c1 .67 1.77 1.14 1.75 2.4l.57.1a15.13 15.13 0 0 1 .27-1.56l.47-2.12-.58-.12-.13.35c-.2.5-.35.87-1 .74a3.63 3.63 0 0 1-1.2-.65l-.33-.22.67-3.38.5-.1a3.61 3.61 0 0 1 1.55-.13c.53.1.43.65.4 1v.4l.57.1.27-1.58.37-1.85.4-1.77-.57-.1c-.33 1.18-1.07 1.28-1.94 1.44zm-2.92 5.55l-3.3-2.17 3.85-.66zm13.9-24.12l.2-.6-3.48-1.2-.32.9c-.16.45-.32.5-.8.35L11.87 100c-.83-.3-1.24-.42-.93-1.66L11 98l-.55-.2-.34 1-.34 1.07L9.4 101a10.41 10.41 0 0 1-.4 1c-.14.3-.25.66-.36 1l.55.2.14-.3c.54-1.17.94-1 1.77-.72l6.24 2.18c.9.3.7.62.53 1.08l-.92 2.64c-.16.46-.2.83-1.1.5l-6.25-2.1c-.82-.3-1.24-.42-.93-1.66l.08-.33-.55-.2-.34 1-.34 1.07-.4 1.16-.4 1.05-.36 1 .55.2.14-.3c.54-1.17.94-1 1.77-.72l5.87 2.05c.83.3 1.24.42.93 1.66l-.08.33.55.2.7-2.07 2.23-6.25c.43-1.33 1-2.28 3.7-1.83zM15 89.2c.68-1.1 1.06-.88 1.84-.5l5.57 2.75c.8.4 1.18.56.72 1.76l-.12.32.52.26.46-1c.15-.37.3-.7.47-1l.54-1.1.53-1 .48-.95-.52-.26-.18.3c-.68 1.1-1.05.9-1.84.5l-5.57-2.75c-.78-.4-1.18-.56-.72-1.76l.12-.32-.52-.26-.46 1-.47 1-.55 1.1-.52 1-.48.95.52.26zm10.7-10.7a5.47 5.47 0 0 0 7.6-1.87c1.67-2.55 1.7-6-1.1-7.87-2.4-1.57-5.7-1.17-7.72 1.9-1.8 2.76-1.42 6.1 1.2 7.84zm-.65-7.4c.57-.87 2.14-2.36 5.56-.12 3.07 2 3 3.82 2.15 5.18-.6.9-2.2 2.26-5.64 0s-2.6-4.23-2.06-5.06zm9.48-12.95c.94-.87 1.25-.57 1.9 0l4.64 4.14c.65.58 1 .86.23 1.9l-.2.27.43.4.7-.8.72-.86.82-.92.77-.82.72-.78-.44-.4-.25.23c-.94.87-1.25.57-1.9 0l-2.1-1.87 3.07-3.45 2.1 1.87c.65.58 1 .86.23 1.9l-.2.27.44.4.7-.8.73-.86.82-.92.77-.82.72-.78-.45-.42-.25.23c-.94.87-1.25.57-1.9 0l-4.63-4.1c-.65-.58-1-.86-.23-1.9l.2-.27-.44-.4-.7.8-.72.86-.82.92-.77.82-.72.78.44.4.25-.23c.94-.87 1.25-.57 1.9 0l2 1.75-3.1 3.4-2-1.75c-.65-.6-1-.86-.23-1.9l.2-.27-.44-.4-.7.8-.72.86-.82.92-.77.82-.72.78.44.4zm20.3-8.27l.38.44a14.92 14.92 0 0 1 1.18-1.06l1.68-1.37-.38-.45-.32.2c-.46.27-.8.47-1.26-.06a3.65 3.65 0 0 1-.54-1.25l-.12-.38 2.62-2.23.45.22a3.66 3.66 0 0 1 1.3.86c.35.4-.06.78-.3 1l-.28.3.38.44 1.2-1.07.66-.56.75-.64 1.4-1.14-.38-.45c-.92.72-1.57.34-2.34-.07L53 38.47l-.58.5 2.55 8c.36 1.1.67 1.94-.13 2.92zm2.54-6.55L55.2 45.2 54 41.46zm8.92-14c1.1-.55 1.75-.18 2.74 1.68a10 10 0 0 1 1.49 4.51c.07 1-.22 1.2-.3 1.26a1 1 0 0 1-.55.06 1.1 1.1 0 0 0-.76.16.93.93 0 0 0-.33 1.31 1.14 1.14 0 0 0 1.66.22 2.6 2.6 0 0 0 1.13-1.72c.44-2-.7-4.77-2-7.1l-.68-1.2c-.07-.14-.2-.42.24-.7l1.2-.8c.18-.12.33-.2.56.15l3.83 6c.47.74.72 1.1-.3 1.9l-.27.2.32.5.9-.58.93-.63 1-.67 1-.58c.36-.18.6-.37.9-.56l-.32-.5-.3.16c-1.14.6-1.36.22-1.84-.52l-3.37-5.27c-.47-.74-.72-1.1.3-1.9l.27-.2-.32-.5-.9.6-.93.63-3.72 2.4-2.13 1.32.32.5zm15.96-9.42c.85-.33 1.25-.3 1.75.76l2.64 5.66c.5 1.07.26 1.4-.54 1.83l-.2.1.25.53 2.4-1.17L91 26.5c1.62-.75 3.67-2.1 2.58-4.45a2.82 2.82 0 0 0-2.73-1.66 6.85 6.85 0 0 0-2.79.83l-.94.47-1-2.06c-.5-1.07-.26-1.4.54-1.83l.2-.1-.25-.53-1.67.83-.74.34-.74.35-1.7.75.25.53zm5.9 2.1a2 2 0 0 1 1.6-.25 2.44 2.44 0 0 1 1.38 1.39c.8 1.7-.07 2.5-.78 2.84a1.09 1.09 0 0 1-1.54-.67l-1.38-3c.23-.08.5-.2.72-.32zm11.9-9.7c1.26-.26 1.37.16 1.63 1l1.82 5.94c.26.84.4 1.25-.78 1.74l-.32.13.17.56 1-.33 1.06-.36 1.18-.36 1.08-.3 1-.3-.17-.56-.33.07c-1.26.26-1.37-.16-1.63-1l-.77-2.68 4.4-1.35.83 2.7c.26.84.4 1.24-.8 1.74l-.3.13.17.56 1-.33 1.06-.36 1.18-.36 1.08-.3 1-.3-.17-.56-.33.07c-1.26.26-1.37-.16-1.63-1l-1.82-5.94c-.26-.84-.4-1.24.78-1.74l.32-.13-.17-.56-1 .33-1.06.36-1.18.36-1.08.3-1 .3.17.56.33-.07c1.26-.26 1.37.16 1.63 1l.77 2.5-4.4 1.35-.78-2.5c-.26-.84-.4-1.24.78-1.74l.32-.13-.17-.56-1 .32-1.06.36-1.18.36-1.08.3-1 .3.17.56zm21.4-5.77c1.28-.07 1.33.36 1.46 1.23l.93 6.14c.13.87.2 1.3-1 1.6l-.33.08.1.58 1-.17 1.1-.2 1.27-.2 1.1-.14 1.05-.14-.1-.58h-.34c-.75.05-1.27.07-1.43-1v-.18l4.08-5.76.76 5c.13.87.2 1.3-1 1.6l-.33.08.1.58 1-.17 1.1-.2 1.2-.18 1.12-.14 1.05-.14-.1-.58h-.34c-1.28.07-1.33-.36-1.46-1.23l-.93-6.14c-.13-.86-.2-1.3 1-1.6l.33-.08-.1-.6-1 .17-1.1.2-1.22.18-1.12.14-1.05.14.1.58h.34c.75-.05 1.26-.08 1.44 1.1v.12l-4.08 5.78-.76-5c-.13-.87-.2-1.3 1-1.6l.33-.08-.1-.58-1 .17-1.1.2-1.22.18-1.1.14-1.05.14.1.58zm28.46-3.85c1.94 0 2.94-.9 2.94-1.65a.94.94 0 0 0-.9-1 .79.79 0 0 0-.86.7.62.62 0 0 0 .11.32c.08.1.2.2.2.32 0 .3-.54.72-1.48.72s-1.47-.44-1.47-.73c0-.12.12-.22.2-.32a.62.62 0 0 0 .11-.32.79.79 0 0 0-.86-.71.93.93 0 0 0-.92.99c0 .77 1 1.67 2.93 1.68zm-4.3 10.92h3.4v-.58h-.34c-.75-.06-1.26-.13-1.26-1.25v-.18l4.9-5.07v5.1c0 .88 0 1.3-1.26 1.43h-.34v.58h5.6v-.52H156c-1.28-.12-1.26-.56-1.26-1.43v-6.2c0-.88 0-1.3 1.26-1.43h.34V3.4h-5.53V4h.34c.75.06 1.26.1 1.26 1.3v.12l-4.9 5.1v-5.1c0-.88 0-1.3 1.27-1.43h.34v-.6h-5.6V4h.34c1.28.13 1.26.56 1.26 1.43v6.2c0 .88 0 1.3-1.27 1.43h-.34v.58h2.12zm31.8 3.1c1.8.4 2.9-1.13 4.1-2.58l2.24-2.7c1.83-2.2 2.35-2.88 3.28-2.75l.13-.57-1.86-.37-1.55-.4-.13.57c.88.13 1.05.58 1 .88s-.56.95-2.9 3.77l-1.18-3.85a2.21 2.21 0 0 1-.09-.89c.1-.5.6-.42 1-.37h.25l.13-.57-2.53-.52-2.4-.58-.13.57a2.13 2.13 0 0 1 1.25 1.46l2 6.6-.32.37c-.28.32-.65.8-1 .7-.2 0-.32-.27-.48-.47a1 1 0 0 0-.61-.44 1 1 0 0 0-1.3.75c-.1.58.2 1.18 1.1 1.38zm16.77 4.25l1.15.43 1 .42c.3.14.66.26 1 .4l.2-.55-.3-.15c-1.15-.56-1-1-.68-1.78l1-2.64 4.32 1.62-1 2.63c-.3.82-.44 1.23-1.68.9l-.33-.1-.2.55 1 .36 1.06.36 1.15.43 1 .42c.3.14.66.26 1 .4l.2-.55-.3-.15c-1.15-.56-1-1-.68-1.78l2.18-5.82c.3-.82.44-1.23 1.68-.9l.33.1.2-.55-1-.36-1.06-.36-1.15-.43-1-.42-1-.4-.2.55.3.15c1.15.56 1 1 .68 1.78l-.9 2.5-4.32-1.62.92-2.46c.3-.82.44-1.23 1.68-.9l.33.1.2-.55-1-.36-1.06-.36-1.15-.43-1-.42c-.3-.14-.66-.26-1-.38l-.2.55.3.15c1.15.56 1 1 .68 1.78l-2.18 5.82c-.3.82-.44 1.23-1.68.9l-.33-.1-.2.55 1 .36zm19.06 8.18l1.1.57 1 .55.93.5.27-.52-.3-.18c-1.08-.7-.86-1.08-.45-1.85l2.88-5.5c.4-.78.6-1.17 1.78-.68l.3.13.27-.52-.95-.48-1-.5-1.1-.6-1.93-1.06-.27.52.28.18c1.08.7.86 1.08.46 1.85l-2.88 5.5c-.4.78-.6 1.17-1.78.68l-.3-.13-.27.52 1.96 1z"></path><path d="M231.4 38.95a2.5 2.5 0 0 0 1.53-1c1-1.53-.1-3.26-1.28-4.16 1.68.82 3 .4 3.56-.5a2.11 2.11 0 0 0 .31-1.48c-.2-1.3-1.6-2.25-2.3-2.74l-2.3-1.5-1.84-1.3-.33.48.26.24c1 .82.74 1.17.24 1.9l-3.47 5.1c-.5.73-.72 1.1-1.85.48l-.3-.16-.33.48 2.13 1.38c1.78 1.23 4.03 3.2 5.97 2.77zm.36-9.5c.16-.23.23-.37.54-.16l.26.17A1.7 1.7 0 0 1 233 32a1.73 1.73 0 0 1-2.72.5l-.4-.28zm-4 5.9l1.7-2.5.57.4a2 2 0 0 1 .65 3.17c-1.1 1.6-2.26.93-2.57.72a1.18 1.18 0 0 1-.33-1.78zM244.8 51.4l.6-.74a13.65 13.65 0 0 1 1.42-1.47l-.45-.4a2.43 2.43 0 0 1-3.56-.1c-1-.87-1.23-1.47 0-2.9l1.34-1.52.3.25a1.62 1.62 0 0 1 .18 2.45l.45.4 1.34-1.6 1.4-1.53-.45-.4A1.62 1.62 0 0 1 245 44l-.3-.26 2-2.32c.5-.57.52-.6 1-.14l.26.22c.78.7 2 1.86.9 3.43l.5.44 1.7-2.12-4.8-4.16c-.56-.5 0-.06-1.6-1.48l-.4.44.23.25c.88.94.58 1.25 0 1.9l-4.1 4.66c-.58.66-.85 1-1.9.24l-.28-.2-.4.44 1.67 1.4zm6.62 6.67l.76.82.82.92.77.92.74.86.44-.4-.2-.27c-.93-1.27-.4-1.53.14-2l2-1.78.63.72c2.65 3 4.42 1.9 5 1.35.9-.8 1.46-2.46-.57-4.7l-1.9-2.07c-.42-.45-.75-.9-1.68-2l-.44.4.2.27c.75 1 .42 1.3-.24 1.9l-4.66 4.1c-.66.58-1 .88-1.9 0l-.25-.23-.44.4.78.8zm8.72-3.76c.37-.33.47-.3.85.13a1.84 1.84 0 0 1-.18 2.89 2 2 0 0 1-3.08-.28 4.6 4.6 0 0 1-.28-.37zm7.68 23.44l-.57.75.38.56 1.5-1 1.4-.9-.38-.56a3.11 3.11 0 0 1-4.07-.78c-.63-.94-1.4-3.1 1.85-5.3 2.92-2 4.8-1.07 5.55.05a2.71 2.71 0 0 1 .29 2.63 3.66 3.66 0 0 1-.79 1.27l.4.57 2.62-2-.38-.56-.87.3a4.65 4.65 0 0 0-.84-3 5.32 5.32 0 0 0-7.57-1.57 5.06 5.06 0 0 0-1.34 7.43 4.9 4.9 0 0 0 2.82 2.09zm12.18 6.4l-5.6 2.7c-.8.38-1.17.58-1.84-.5l-.18-.3-.53.25.48.95.52 1 .54 1.1.46 1 .45 1 .53-.26-.12-.32c-.27-.7-.44-1.2.57-1.68l.17-.08 6.7 2.2-4.58 2.22c-.8.38-1.17.58-1.84-.5l-.17-.3-.53.26.48.95.52 1 .53 1.1.46 1 .45 1 .53-.26-.12-.32c-.44-1.2-.05-1.38.74-1.76l5.6-2.7c.8-.38 1.17-.58 1.84.5l.17.3.53-.25-.48-.95-.52-1-.54-1.1-.46-1-.45-1-.53.25.12.32c.27.7.45 1.18-.63 1.7l-.1.05-6.73-2.18 4.6-2.23c.8-.38 1.17-.58 1.84.5l.17.3.53-.26-.48-.95-.52-1-.6-1.1-.46-1-.45-1-.53.25.12.32c.46 1.22.06 1.4-.68 1.78zM291.42 109c.54 1.7.08 2.6-.88 3.1l-.3.16.2.6 2.76-1-1.1-3.3-.9-2.85-1-3.3-2.84.78.2.6h.34c1.1-.14 2 .34 2.52 2 .16.5 0 .52-.4.65l-6.54 2.08c-.83.27-1.24.4-1.75-.77l-.13-.3-.56.18.34 1 .37 1.06.37 1.17.3 1.08.3 1 .56-.18-.07-.33c-.27-1.25.15-1.37 1-1.64l6.54-2.08c.4-.14.52-.23.7.3zm-1.58 21.8a2.43 2.43 0 0 1-2.74-2.27c-.24-1.3-.06-1.9 1.82-2.26l2-.37.07.38a1.62 1.62 0 0 1-1.37 2l.1.6 2-.42 2-.33-.1-.6a1.62 1.62 0 0 1-2-1.41l-.07-.38 3-.56c.74-.14.78-.16.9.53l.06.33c.2 1 .44 2.7-1.4 3.26l.12.65 2.65-.62-1.2-6.22c-.14-.74 0-.07-.35-2.15l-.57.1v.34c.1 1.28-.32 1.34-1.18 1.5l-6.1 1.13c-.86.16-1.28.26-1.64-1l-.1-.33-.57.1.44 2.14 1.23 6.87.93-.2a13.39 13.39 0 0 1 2-.28zm8.8 15.2l-.17-3-.15-3.46h-2.94v.63h.34c1.1.14 1.84.82 1.93 2.6 0 .54-.13.5-.56.52l-6.85.4c-.88 0-1.3.1-1.5-1.18l-.05-.34h-.58c0 .35 0 .7.08 1.06s.08.75.1 1.12l.07 1.23v2.18h.58v-.34c.05-1.28.48-1.3 1.36-1.34l6.85-.38c.43 0 .58-.08.6.46.1 1.77-.57 2.53-1.63 2.8l-.34.08v.63l2.93-.3zm-39.56 6.7a109.6 109.6 0 1 0-210 43.87l1.06-3.57a107.24 107.24 0 1 1 198.87-.45l1.1 3.56a109 109 0 0 0 8.98-43.41zm-9.65 44.87l-1.06-3.44-2.88-9.36-1.34 3.57A101.51 101.51 0 0 1 214 230.62l-1 .83.57.68 4.3 5.17a108.65 108.65 0 0 1-136.88 0l4.32-5.2.57-.68-1-.83A101.68 101.68 0 0 1 55 188.83l-1.35-3.55-2.84 9.33-1 3.43-1 3.34-15.8-8.7 1.27 3.32a122.94 122.94 0 0 0 16.4 30l-6.06 4.6.8 1a130.45 130.45 0 0 0 208.09.06l.8-1-6.06-4.6a122.9 122.9 0 0 0 16.4-30.06l1.26-3.36-15.33 8.7zm-100 83.3a127.11 127.11 0 0 1-101.2-49.73l13.3-10.07a113.73 113.73 0 0 0 13.73 14.76 111.2 111.2 0 0 0 148.36 0 113.63 113.63 0 0 0 13.69-14.71l6.4 4.86 1.28 1 5.6 4.25a127.12 127.12 0 0 1-101.11 49.64zm-67.58-48.6l-1.75 2.1-1.1 1.27a110.18 110.18 0 0 1-10-9.79l4.66 2.6a85.36 85.36 0 0 0 8 3.63l.28.1zM217 232.2l.32-.12 8-3.6 4.66-2.6a110.1 110.1 0 0 1-10.06 9.78l-1.05-1.27-1.75-2.1zM51.38 201.52l1-3.32 1.52-5a104.34 104.34 0 0 0 23.54 34.23l-1.9-.93a80.71 80.71 0 0 1-7.86-4.5 54.75 54.75 0 0 1-4.9-3.56l-.75-1-.63.48-8.68 6.58a120.33 120.33 0 0 1-14.72-26l12.24 6.8zm193.92 22.36l-8.46-6.4-.7.92a54.22 54.22 0 0 1-4.9 3.56 80.16 80.16 0 0 1-7.85 4.53l-1.9.93a104.12 104.12 0 0 0 23.72-34.69l1.54 5 1 3.34 1.27 4.14 11.82-6.7a120.32 120.32 0 0 1-14.73 26zM36.6 175.92a1.68 1.68 0 0 1-.29.88 1.87 1.87 0 0 0-.29 1.28 1.58 1.58 0 0 0 1.79 1.43 1.92 1.92 0 0 0 1.49-2.4 4.41 4.41 0 0 0-1.84-2.94c-2.77-2.07-7.83-2.3-12.33-1.9l-2.34.2c-.26 0-.8 0-.9-.87l-.34-2.37c-.05-.36-.07-.65.63-.75l11.82-1.7c1.47-.2 2.2-.34 2.7 1.77l.13.56 1-.14c-.08-.6-.17-1.2-.28-1.78l-.32-1.87-.3-2.06c-.1-.62-.16-1.27-.22-1.9s-.15-1.2-.23-1.78l-1 .14v.57c.1 2.17-.62 2.25-2.1 2.46l-10.4 1.5c-1.47.2-2.2.34-2.7-1.77l-.13-.56-1 .14c.1.6.17 1.2.28 1.77a48.43 48.43 0 0 1 .32 1.87l1.07 7.4.53 4.2 1-.14v-.45c-.07-2.1 1-2.82 4.5-3 4.5-.28 6.4.26 8 .87s1.7 1.15 1.73 1.33zM20 155.5c.16-1.53.5-2.12 2.5-2l10.56.4c2 .08 2.3.7 2.34 2.23v.36h1l.1-4.53.25-4.52c.12-3-.32-7.15-4.7-7.32a4.77 4.77 0 0 0-4.62 2.82 11.53 11.53 0 0 0-.92 4.84v1.77l-3.85-.15c-2-.08-2.3-.7-2.33-2.23v-.36h-1v3.15l-.05 1.38c-.05.47 0 .9-.05 1.38 0 .88-.14 2.3-.2 3.14h1zm7.73-7.25a3.39 3.39 0 0 1 .86-2.6 4.13 4.13 0 0 1 3.16-1c3.15.12 3.72 2 3.67 3.37a1.85 1.85 0 0 1-2.21 1.79l-5.5-.2.08-1.35z"></path><path d="M36.5 136.7l1 .2.83-4.2c.8-3.56 2.46-8.3.55-11.1a4.23 4.23 0 0 0-2.58-1.75c-3.05-.66-5.06 2.2-5.7 4.63.23-3.15-1.23-4.9-3-5.28a3.59 3.59 0 0 0-2.52.44c-1.92 1.13-2.52 3.93-2.83 5.35s-.55 3-.9 4.55c-.43 1.88-.27 1-.88 3.7l1 .2.17-.55c.66-2.07 1.37-1.9 2.82-1.58l10.28 2.22c1.45.3 2.17.44 1.92 2.6zm-7-9.28l-.18.8-5.6-1.24c-.46-.1-.72-.13-.6-.74l.1-.5a2.88 2.88 0 0 1 3.77-2.3c3.16.7 2.7 3.1 2.5 3.98zm6 2.14l-5-1.08.25-1.15c.8-3.74 3.6-3.22 4.56-3 3.2.7 2.88 3 2.75 3.57a2 2 0 0 1-2.55 1.66zm5.9-13l-.15.55.93.35.6-1.7.62-1.8.73-1.95.72-1.76.65-1.67-.93-.35-.25.52c-1 1.95-1.63 1.67-3 1.15l-9.84-3.7c-1.4-.52-2.08-.75-1.52-2.85l.15-.55-.93-.35-.6 1.7-.62 1.8-.73 2-.72 1.76-.66 1.67.93.35.25-.52c1-1.95 1.63-1.67 3-1.15l9.84 3.7c1.4.47 2.12.7 1.53 2.8zm.9-30.93a3.59 3.59 0 0 0-2.54-.31c-2.16.53-3.55 3-4.26 4.3l-2.18 4.1-1.9 3.3.86.48.33-.5c1.23-1.8 1.85-1.4 3.15-.7l9.2 5.1c1.3.72 1.95 1.05 1.08 3l-.23.53.87.48 2-3.8c1.8-3.18 4.76-7.25 3.74-10.46a4.23 4.23 0 0 0-2-2.43c-2.73-1.5-5.48.65-6.8 2.78 1.2-2.9.3-5-1.3-5.88zm-.5 8.45l-.4.73-5-2.8c-.4-.23-.65-.33-.35-.88l.25-.46a2.87 2.87 0 0 1 4.28-1.11c2.8 1.57 1.67 3.7 1.23 4.5zm6.45-1.28c2.87 1.6 1.9 3.67 1.6 4.22a2 2 0 0 1-2.94.84l-4.46-2.47.57-1c1.86-3.4 4.38-2.07 5.25-1.6zm.63-23.28a9 9 0 0 0 1.19 13c4.2 3.4 9.3 2.63 12.66-1.5a8.29 8.29 0 0 0 2-5.55l1.5.55.72-.9-2.44-1.9-2.17-1.83-.72.9c1.54 1.7 2.7 4.55.74 7-1.2 1.47-4.36 3.73-9.46-.42-4.62-3.76-4.1-7.22-2.65-9a4.59 4.59 0 0 1 4.11-1.76 6.27 6.27 0 0 1 2.45.65l.74-.9-4.45-3.3-.72.9.93 1.26a7.88 7.88 0 0 0-4.43 2.85zM61.6 56.6l-1 .9-2.43 2 .65.75.3-.22c1.23-.93 1.9-1.08 3.2.44l6.9 8c1.3 1.52 1.06 2.14 0 3.23l-.26.26.65.75 3.38-3 3.48-2.9c2.28-2 5-5.12 2.14-8.43a4.77 4.77 0 0 0-5.21-1.45 11.62 11.62 0 0 0-4.16 2.63l-1.3 1.2-2.6-2.95c-1.3-1.52-1.06-2.15 0-3.23l.26-.26-.6-.74-2.33 2.12zm8 4.13a3.4 3.4 0 0 1 2.48-1.15A4.13 4.13 0 0 1 75 61.2c2.06 2.38 1 4.12 0 5a1.85 1.85 0 0 1-2.82-.39l-3.6-4.18c.43-.3.74-.63 1.08-.9zm7.58-16.63l-1.56.88.5.86.52-.24c2-.9 2.32-.27 3.07 1l5.3 9.1c.75 1.28 1.14 1.9-.62 3.17l-.47.33.5.85 1.54-.93 1.62-1 1.8-1.05 1.67-.9 1.56-.88-.5-.85-.52.24c-2 .9-2.32.27-3.07-1L86 49.32l.8-.47c.94-.55 1.85-.7 3.57.63l2.16 1.7c1.4 1.1 3.25 2.57 6.1.9a3.64 3.64 0 0 0 1.86-4l-1.08.12c0 .5-.06.94-.48 1.2-.76.45-1.92-.3-2.44-.62-3.72-2.23-5.7-2.64-7.56-2v-.07c.4-.6.72-1.45.4-3.94-.14-1-.47-2.5.37-3a2.62 2.62 0 0 1 1.17-.11 2.1 2.1 0 0 0 .9-.26 1.64 1.64 0 0 0 .7-2.31c-.5-.88-1.5-1.35-2.9-.53-2.57 1.46-2.2 4.1-1.9 6.1.34 2.18.65 3.8-1.26 4.93l-1.08.63-2.13-3.64c-.75-1.28-1.14-1.9.62-3.17l.47-.33-.5-.85-1.54.93-1.62 1-1.8 1.05-1.65.9zm27.7-14.1l-.72 14.12c-.1 2-.1 3.55-2 4.63l.33.93a26.21 26.21 0 0 1 2.5-1l3.48-1.17-.33-.93-.62.1c-.9.15-1.57.26-2-.84a6.23 6.23 0 0 1-.11-2.31v-.68l5.5-2 .58.62a6.1 6.1 0 0 1 1.54 2.13c.3.86-.57 1.2-1.08 1.47l-.6.3.33.93 2.52-1 2.94-1.05 2.92-1-.33-.93c-1.9.6-2.7-.4-3.67-1.5l-9.96-11.25zm.68 11.54l.27-6.65 4.32 5zm43.85-18.42l.6-.12-.08-1c-.6 0-1.2.1-1.8.16l-1.9.2-13.74 1.1-1.9.1-1.8.1.08 1h.58c2.17 0 2.2.77 2.32 2.25l.8 10.5c.1 1.48.2 2.2-1.94 2.58l-.57.1.08 1c.6 0 1.2-.1 1.8-.16l1.9-.2 2.08-.16 1.9-.1 1.8-.1-.07-1h-.58c-2.17 0-2.2-.77-2.3-2.25l-.87-11.1c-.12-1.6.5-1.5 1.32-1.56l4.73-.36c.83-.06 1.42-.27 1.54 1.34l.85 11.1c.1 1.48.2 2.2-1.94 2.58l-.57.1.08 1c.6 0 1.2-.1 1.8-.16l1.9-.2 2.08-.16 1.9-.1 1.8-.1-.07-1h-.58c-2.17 0-2.2-.77-2.3-2.25l-.8-10.5c-.13-1.53-.2-2.25 1.93-2.63zm14.68 18.02c5.1.67 10.47-1.88 11.2-7.46.63-4.8-2.42-9.57-8.6-10.38-5.52-.73-10.36 2.3-11.06 7.6s3.37 9.56 8.45 10.23zm-3.83-9.78c.88-6.7 4.5-7.1 6.2-6.88s5.18 1.52 4.28 8.4c-.8 6.17-3.58 7.46-6.32 7.1-1.84-.24-5.06-1.7-4.15-8.6zm25.9-2.76l.4.2c1.9.9 2.07 2.15.64 5.4-1.8 4.1-3.17 5.57-4.44 6.7s-1.82 1-2 .9-.46-.4-.65-.67a1.87 1.87 0 0 0-1-.84 1.57 1.57 0 0 0-2.08.93 1.92 1.92 0 0 0 1.45 2.43 4.4 4.4 0 0 0 3.46-.29c3.1-1.5 5.62-5.9 7.34-10.08l.9-2.17c.1-.24.35-.7 1.2-.4l2.26.78c.35.12.6.24.38.9L190.1 43.7c-.48 1.4-.7 2.1-2.8 1.6l-.56-.14-.32.94c.57.2 1.13.4 1.7.56a46.87 46.87 0 0 1 1.81.57l2 .68c.6.2 1.2.44 1.78.67a31.44 31.44 0 0 0 1.69.61l.32-.94-.52-.24c-2-.9-1.7-1.58-1.23-3l3.44-9.94c.48-1.4.7-2.1 2.8-1.6l.56.14.32-.94c-.57-.2-1.13-.4-1.7-.56a46.87 46.87 0 0 1-1.81-.57l-7.06-2.44-4-1.46zm19.8 7.72l.48.32c1.8 1.2 1.44 1.83.75 3.14l-4.95 9.28c-.7 1.3-1 2-3 1.13l-.53-.22-.47.87 1.6.82 1.7.85 1.84 1 1.66.94 1.57.87.47-.87-.48-.32c-1.8-1.2-1.44-1.83-.75-3.14l4.95-9.28c.7-1.3 1-2 3-1.13l.53.22.47-.87-1.6-.82-1.7-.85-1.84-1-1.65-.94-1.57-.87zm10.77 21.52c-.88 1.2-1.3 1.8-3.15.68l-.5-.3-.6.8 1.46 1 1.56 1.1 1.68 1.23 1.5 1.17 1.43 1.1.6-.8-.43-.38c-1.62-1.45-1.17-2-.3-3.22l6.88-9.35c.43-.6.52-.84 1.26-.3 2.4 1.77 2.7 3.46 1.88 5.13l-.26.52.86.63 2.78-4.13-4.76-3.4-4.07-3-4.67-3.53-3.1 3.88.86.63.42-.4c1.35-1.27 3-1.5 5.46.27.73.54.52.7.1 1.3zm20.62 3.36l-7.6 7.28c-1.07 1-1.58 1.55-3.22.13l-.43-.38-.7.68 2.6 2.6 8.12 8.58 1.13-1.15a23 23 0 0 1 2.61-2.28l-.7-.73c-2.77 2.22-5 .32-6-.68-1.55-1.62-1.86-2.65.47-4.9l2.5-2.36.45.47a2.74 2.74 0 0 1-.05 4.16l.7.73 2.48-2.5 2.6-2.37-.7-.73a2.74 2.74 0 0 1-4.16-.12l-.45-.47 3.77-3.62c.92-.88 1-1 1.8-.1l.4.4c1.22 1.28 3.13 3.42 1.05 5.9l.77.8 3.18-3.34-7.48-7.7c-.88-.92 0-.1-2.5-2.72l-.7.68.36.45c1.4 1.7.8 2.18-.27 3.2zm11.5 23.14c-5.86-.84-8.08-.4-9.78-2.34l-.82.55 1.56 2.18c.6.85 1.77 2.73 2.23 3.46l.82-.55-.2-.37c-.4-.77-.63-1.36 0-1.8.22-.14 1-.65 5.25 0l.5.08-1.33 4.18a2.94 2.94 0 0 1-.76 1.48c-.7.46-1.13-.34-1.62-.92l-.32-.38-.82.55 1.57 2.2.87 1.23 1 1.47a79.29 79.29 0 0 1 1.76 2.77l.82-.55c-.8-1.38-.28-2.38.1-3.5l2.66-8.08c5 .58 7.64 0 9.5 2.13l.82-.55-2.1-3c-.53-.74-1.25-1.92-1.66-2.62l-.82.55.23.44c.2.38.82 1.27 0 1.8-.52.35-1.54.47-4.6.18l-.94-.1 1.1-3.25c.53-1.55.95-2 1.23-2.14.65-.43 1.08.4 1.48.9l.24.3.82-.55-1.88-2.66-1-1.45-.75-1.16c-.44-.65-1-1.65-1.44-2.3l-.82.55c.64 1.6.26 2.3-.24 3.7zm2.02 15.6l-.27-.5-.9.38.7 1.65.77 1.74.8 1.93.68 1.78.66 1.67.9-.38-.17-.55c-.63-2.08.05-2.33 1.42-2.9l4.4-1.82 3 7.22-4.4 1.82c-1.37.57-2 .87-3.06-1l-.27-.5-.92.38.7 1.65.77 1.74.8 1.93.68 1.78.66 1.67.9-.38-.17-.55c-.63-2.08.05-2.33 1.42-2.9l9.72-4c1.37-.57 2-.87 3.05 1l.27.5.9-.38-.7-1.65-.77-1.74-.8-1.92-.68-1.78-.66-1.67-.9.38.17.55c.63 2.08-.05 2.33-1.42 2.9l-4.12 1.7-3-7.22 4.12-1.7c1.37-.57 2-.87 3.05 1l.27.5.9-.38-.7-1.65-.77-1.74-.8-1.92-.68-1.78-.66-1.67-.9.38.17.55c.63 2.08-.05 2.33-1.42 2.9l-9.72 4c-1.36.6-2.02.9-3.04-1.02zm12.36 28.6l10.25-2.35c1.45-.33 2.15-.52 2.84 1.54l.18.55 1-.22-.43-1.75-.48-1.84-.46-2-.38-1.86-.37-1.76-1 .22.08.57c.28 2.15-.44 2.3-1.9 2.62l-10.25 2.35c-1.45.33-2.15.52-2.84-1.54l-.18-.55-1 .22.43 1.75.48 1.84.46 2 .38 1.86.37 1.76 1-.22-.08-.57c-.28-2.17.44-2.28 1.9-2.62z"></path><path d="M275.47 145.77c-2.1-.66-3.7-1.1-3.86-3.3l-.1-1.25 4.2-.3c1.48-.1 2.2-.18 2.56 2l.1.57 1-.07c0-.6-.08-1.2-.15-1.8l-.2-1.9-.15-2.08-.08-1.9-.1-1.8-1 .07v.57c-.06 2.17-.78 2.2-2.26 2.3l-10.5.74c-1.48.1-2.2.18-2.57-2l-.1-.57-1 .07c0 .6.08 1.2.15 1.8l.18 1.9.15 2.08.08 1.9.1 1.8 1-.07V144c.06-2.17.78-2.2 2.26-2.3l5-.35.07.93c.08 1.1-.17 2-2.14 2.92l-2.47 1.2c-1.6.76-3.74 1.78-3.5 5.07a3.64 3.64 0 0 0 2.75 3.43l.37-1c-.46-.23-.82-.46-.85-1-.06-.88 1.1-1.6 1.64-1.92 3.64-2.34 4.9-3.95 5.17-5.87h.08c.36.63 1 1.3 3.36 2.1 1 .32 2.45.7 2.52 1.65 0 .36-.24.7-.42 1.1a2.07 2.07 0 0 0-.17.92 1.64 1.64 0 0 0 1.76 1.65c1-.07 1.88-.76 1.76-2.37-.22-2.9-2.76-3.75-4.68-4.37zm-11.9 10.35l-1-.1a26.1 26.1 0 0 1-.22 2.67l-.48 3.64 1 .1.17-.6c.25-.86.46-1.52 1.62-1.4a6.16 6.16 0 0 1 2.12.92l.6.33-.65 5.8-.8.25a6.15 6.15 0 0 1-2.59.45c-.9-.1-.83-1-.84-1.6v-.68l-1-.1-.22 2.7-.16 1.45-.2 1.66-.42 3 1 .1c.3-2 1.53-2.24 3-2.63l14.6-4.06.14-1.27-12.36-6.85c-1.77-.95-3.13-1.63-3.3-3.76zm5 6.2l5.85 3.17-6.43 1.66zM68 234.6l-1.3-1.24-1.3-1.35a.61.61 0 0 0-.31.27 6.18 6.18 0 0 1 .44.59c.18.3.1.46-.2.76l-1.86 1.9-2.36 2.27a.51.51 0 0 1-.66.11 7.5 7.5 0 0 1-.69-.51c-.07 0-.3.2-.3.3l1.43 1.37 2.58 2.68c.33.33.5.38.6.34a9.66 9.66 0 0 0 2.14-1.1.57.57 0 0 0-.18-.41 9.22 9.22 0 0 1-1.71.48.86.86 0 0 1-.87-.23 10.54 10.54 0 0 1-1.34-1.46.49.49 0 0 1 .1-.46l2.34-2.4 1.92-1.85c.27-.23.36-.32.64-.17a6.86 6.86 0 0 1 .55.41c.1-.03.34-.24.34-.3zm7.87 7.2l-1.42-1.16-1.38-1.24a.6.6 0 0 0-.29.31 3.54 3.54 0 0 1 .51.6c.15.23.07.4-.12.66-.37.5-.87 1.08-1.67 2l-2.18 2.5c-.3.3-.45.36-.78.18l-.56-.34c-.08 0-.3.24-.27.32l1.53 1.25 1.4 1.24a.78.78 0 0 0 .3-.29l-.5-.62c-.24-.32-.1-.54.1-.8l2-2.37 1.77-2c.34-.33.42-.4.7-.28a4.73 4.73 0 0 1 .59.37.64.64 0 0 0 .25-.33zm8.25 6.3l-3.94-2.82a3.31 3.31 0 0 1-.82-.83s-.13-.06-.14 0a30.94 30.94 0 0 1-1.53 1.67c0 .1.25.36.3.37a6.87 6.87 0 0 1 1.11-.68.62.62 0 0 1 .73 0 15.19 15.19 0 0 1 1.24.89v.12l-3.54 4.88c-.37.47-.56.6-.94.43a5.65 5.65 0 0 1-.8-.41c-.1 0-.26.24-.25.34l1.8 1.23 1.65 1.24c.1 0 .3-.24.3-.3a7 7 0 0 1-.65-.65c-.2-.24-.13-.47.07-.8l3.6-5.08a.11.11 0 0 1 .11-.05l1.35 1a.57.57 0 0 1 .19.63 4.78 4.78 0 0 1-.51 1.1.77.77 0 0 0 .38.26 19.6 19.6 0 0 1 1.59-1.68.16.16 0 0 0 0-.14 3.53 3.53 0 0 1-1.29-.72zm11.22 6.6a3.53 3.53 0 0 1-1.31-.53l-4.2-2.42a3.26 3.26 0 0 1-.9-.74h-.15l-1.36 1.82c0 .1.28.33.34.34a7.12 7.12 0 0 1 1-.79.62.62 0 0 1 .73-.06c.37.18 1.12.62 1.32.76v.12l-3 5.2c-.32.5-.5.66-.9.52a5.84 5.84 0 0 1-.84-.33c-.1 0-.23.27-.2.36l1.9 1 1.77 1.07c.1 0 .27-.27.25-.34a7.27 7.27 0 0 1-.71-.58c-.2-.22-.17-.45 0-.8l3.08-5.42a.11.11 0 0 1 .1-.06l1.44.83a.57.57 0 0 1 .25.61 4.88 4.88 0 0 1-.4 1.15.76.76 0 0 0 .41.22 19.45 19.45 0 0 1 1.41-1.83.16.16 0 0 0-.03-.12zm7.66 3.88l-2.42-1.1-1.7-.82c-.08 0-.22.28-.18.37a6.08 6.08 0 0 1 .59.4c.23.2.24.33.1.73s-.58 1.35-1 2.36l-1.35 2.94c-.22.43-.38.5-.66.45a8.11 8.11 0 0 1-1-.27 1 1 0 0 0-.17.38l2.1.9 3.28 1.54c.57.26.67.22.78.1a10.15 10.15 0 0 0 1.31-1.48.87.87 0 0 0-.33-.33 5.8 5.8 0 0 1-1.13.83c-.38.18-.56.2-1.1 0a12.66 12.66 0 0 1-1.63-.84.47.47 0 0 1-.07-.55l1-2.3s.1-.1.12-.08l1.67.78a.53.53 0 0 1 .26.55c0 .17 0 .2-.12.55a.79.79 0 0 0 .45.18l.5-1.17a13.85 13.85 0 0 1 .6-1.13.76.76 0 0 0-.43-.23l-.3.4c-.08.1-.34.3-.62.2l-1.72-.74a.11.11 0 0 1 0-.13l1.1-2.47c0-.06.16-.18.26-.16a24.33 24.33 0 0 1 1.77.81.59.59 0 0 1 .37.64 3 3 0 0 1-.19.9.87.87 0 0 0 .44.17 11.47 11.47 0 0 1 1-1.66v-.1a14.72 14.72 0 0 1-1.56-.63zm11.3 6.42c.38-1.1-.16-2.24-1.7-2.75l-2.24-.72-1.6-.6c-.08 0-.18.3-.18.4a6.52 6.52 0 0 1 .64.33c.26.16.3.35.2.72l-.92 2.76-1 2.8c-.15.35-.32.56-.63.52l-.65-.1c-.08 0-.17.33-.13.4l1.75.55 1.78.65c.08 0 .2-.35.16-.4l-.66-.36c-.2-.12-.3-.33-.17-.72l.73-2.23s0-.06.07 0 .5.15.62.2a.5.5 0 0 1 .28.32l.8 3a2 2 0 0 0 .44.74 6.54 6.54 0 0 0 2.21 1c.07 0 .23-.33.2-.38a1.76 1.76 0 0 1-1.11-1.07 19.2 19.2 0 0 1-1.1-3.45v-.08a2.26 2.26 0 0 0 2.21-1.54zm-2.77 1a4.38 4.38 0 0 1-1.55-.39v-.1l1.05-3a.32.32 0 0 1 .15-.16 1.78 1.78 0 0 1 .41.08 1.73 1.73 0 0 1 1.15 2.43c-.3.8-.73 1.08-1.2 1.14zm8.37-1.58a.54.54 0 0 0-.12.4 3.61 3.61 0 0 1 .72.31c.23.14.25.34.2.64-.1.6-.3 1.35-.58 2.55l-.82 3.2c-.13.4-.24.53-.62.5L118 272a.49.49 0 0 0-.1.41l1.93.43 1.8.5a.77.77 0 0 0 .14-.4l-.72-.33c-.36-.18-.33-.44-.27-.76l.7-3 .66-2.6c.14-.47.2-.56.5-.58a4.44 4.44 0 0 1 .69.06.61.61 0 0 0 .1-.41l-1.8-.4-1.76-.5zm7.67 3.94c-.2 1.28.57 2.05 1.63 2.92s1.42 1.38 1.3 2.12a1.19 1.19 0 0 1-1.45 1 2.2 2.2 0 0 1-1.2-.55 3.07 3.07 0 0 1-.76-1.89.59.59 0 0 0-.45.07 9.28 9.28 0 0 0 .08 2.09 4.59 4.59 0 0 0 1.9.73c2 .3 3.22-.66 3.43-2a2.31 2.31 0 0 0-1-2.26l-1.4-1.16A1.56 1.56 0 0 1 129 268a1.22 1.22 0 0 1 1.45-1 1.71 1.71 0 0 1 1 .45c.3.25.36.66.34 1.48 0 0 .37.1.42 0a18.79 18.79 0 0 1 .52-1.86 15.41 15.41 0 0 0-2.06-.54c-1.5-.27-2.87.35-3.1 1.83zm22.1 7.1c-.28.32-.44.4-1 .4a11.87 11.87 0 0 1-1.83-.13.46.46 0 0 1-.28-.47v-2.53s0-.12.08-.12l1.85.06a.52.52 0 0 1 .45.4c0 .17 0 .2.1.55a.78.78 0 0 0 .49 0v-1.27c0-.42.07-1 .1-1.28a.79.79 0 0 0-.49 0c0 .18-.1.37-.12.5s-.2.4-.5.42h-1.87s-.08-.05-.08-.1l.05-2.72c0-.06.07-.23.17-.25s1.65 0 2 0a.59.59 0 0 1 .59.45 2.9 2.9 0 0 1 .18.9.87.87 0 0 0 .47 0 11.45 11.45 0 0 1 .25-1.91s0-.07-.05-.07a14.16 14.16 0 0 1-1.6 0l-2.65-.05c-.7 0-1.46-.08-1.9-.1a.45.45 0 0 0 0 .41 6.87 6.87 0 0 1 .69.13c.3.1.36.2.38.64v2.6l-.1 3.23c-.04.48-.15.6-.43.67a8 8 0 0 1-1 .14 1 1 0 0 0 0 .42h2.27l3.63.12c.63 0 .7-.07.76-.2a10.18 10.18 0 0 0 .63-1.88.89.89 0 0 0-.43-.17 5.58 5.58 0 0 1-.83 1.22zm12.4-7.95a3.49 3.49 0 0 1-1.37.3l-4.83.36a3.36 3.36 0 0 1-1.16-.1.12.12 0 0 0-.13.06l-.1 2.26c0 .08.42.12.47.1a7 7 0 0 1 .41-1.24.62.62 0 0 1 .57-.46 14.46 14.46 0 0 1 1.52-.11s.07.06.07.1l.4 6c0 .6 0 .82-.44.93a5.75 5.75 0 0 1-.87.2.45.45 0 0 0 0 .42c.4 0 1.06-.12 2.16-.2l2.06-.1a.5.5 0 0 0 0-.42 6.7 6.7 0 0 1-.91-.08c-.3-.06-.4-.28-.45-.65l-.5-6.2a.11.11 0 0 1 .05-.11c.26 0 1.14-.1 1.66-.12a.57.57 0 0 1 .55.36 4.7 4.7 0 0 1 .32 1.17.76.76 0 0 0 .46 0 19.27 19.27 0 0 1 .14-2.31.18.18 0 0 0-.09-.13zm18.82 3.27l-3.43-5.17-.37-.66-.53.15c-.24.06-.44.1-.56.1a4.76 4.76 0 0 1 0 .89l-.78 6.14c-.15 1-.3 1.14-1.2 1.5a.63.63 0 0 0 .1.41l1.4-.38 1.66-.36a.55.55 0 0 0-.06-.42h-.66c-.38 0-.43-.16-.48-.36a11 11 0 0 1 .15-2c0-.07.05-.15.1-.16l1.06-.26 1.12-.27s.12 0 .14.06c.34.48.94 1.4 1.18 1.86a.23.23 0 0 1-.06.34 5.1 5.1 0 0 1-.63.31c0 .06 0 .35.1.4l1.82-.48 1.75-.38a.63.63 0 0 0-.06-.42c-1.04.08-1.13.02-1.77-.85zM178 269.3c-.13 0-.5.13-.87.22l-.9.2c-.14.02-.06 0-.06-.08l.26-2.84h.07l1.53 2.4c-.03.02-.03.08-.03.1zm15-1.83a19.35 19.35 0 0 1-3-2v-.08a2.26 2.26 0 0 0 .78-2.49c-.4-1.1-1.5-1.66-3-1.13l-2.2.82-1.62.52c-.06 0 0 .34.1.4a6 6 0 0 1 .71-.14c.3 0 .45.1.6.45l1 2.74 1 2.8c.16.35.1.63-.18.8l-.57.3c0 .07.07.36.14.4l1.7-.64 1.8-.58c.05-.06-.06-.4-.1-.4l-.74.12c-.24.03-.43-.08-.57-.46l-.8-2.2v-.08l.6-.22a.5.5 0 0 1 .42.08l2.46 1.87a1.91 1.91 0 0 0 .8.31 6.51 6.51 0 0 0 2.36-.57.65.65 0 0 0-.06-.43 1.77 1.77 0 0 1-1.62-.2zm-3.78-2.1a4.34 4.34 0 0 1-1.46.65s-.07 0-.1-.06l-1-3a.32.32 0 0 1 0-.22 1.63 1.63 0 0 1 .38-.19 1.73 1.73 0 0 1 2.4 1.21 1.44 1.44 0 0 1-.2 1.61zm12.68-1.17c-.3 0-.47-.12-.65-.45l-2.63-5.64a.11.11 0 0 1 0-.12l1.5-.7a.57.57 0 0 1 .64.15 4.81 4.81 0 0 1 .7 1 .75.75 0 0 0 .42-.2 19.1 19.1 0 0 1-.67-2.21.17.17 0 0 0-.14 0 3.48 3.48 0 0 1-1.18.75l-4.4 2a3.3 3.3 0 0 1-1.12.31c-.06 0-.12.08-.1.1l.7 2.15c.06.07.43 0 .47-.08a7 7 0 0 1 0-1.3.63.63 0 0 1 .37-.63 15 15 0 0 1 1.38-.64s.08 0 .1.07l2.5 5.5c.23.56.25.8-.1 1a5.61 5.61 0 0 1-.75.49.45.45 0 0 0 .18.38l2-.95 1.9-.82c.05-.07-.06-.38-.13-.4a7.09 7.09 0 0 1-.96.24zm9.32-4.9c-.38.12-.54-.1-.72-.37l-1.55-2.68-1.3-2.35c-.22-.44-.24-.52 0-.76a4.76 4.76 0 0 1 .55-.43.63.63 0 0 0-.21-.36l-1.57.93-1.63.88a.55.55 0 0 0 .19.38 3.71 3.71 0 0 1 .74-.27c.27-.06.4.07.58.33l1.33 2.26 1.6 2.9c.18.4.2.54-.1.8l-.5.4c0 .07.13.35.2.36l1.7-1 1.64-.88a.77.77 0 0 0-.17-.38l-.78.24zm6.5-8.93s-.06 0 0-.06a1.84 1.84 0 0 0 .19-2.18c-.88-1.3-2.2-.74-3.1-.13l-1.83 1.3-1.44.93a.72.72 0 0 0 .23.35 3.07 3.07 0 0 1 .68-.32c.22-.07.38 0 .6.26l1.7 2.45 1.65 2.46c.2.34.22.55 0 .74a4.33 4.33 0 0 1-.63.61.57.57 0 0 0 .23.34l2.82-1.85a5.54 5.54 0 0 0 1.59-1.52 2.4 2.4 0 0 0 .08-2.81 2.1 2.1 0 0 0-2.77-.56zm-2.13 1.24l-1.5-2.24c0-.06-.05-.17 0-.2a1.81 1.81 0 0 1 .3-.26 1.58 1.58 0 0 1 2.47.36 1.29 1.29 0 0 1 .2 1.29 2.52 2.52 0 0 1-.75.68 7.26 7.26 0 0 1-.63.39.08.08 0 0 1-.1-.01zm3.4 2.9a1.75 1.75 0 0 1-.94.31.77.77 0 0 1-.47-.25c-.37-.46-1.16-1.66-1.66-2.4a.09.09 0 0 1 0-.1 5 5 0 0 1 .44-.32c1.16-.8 2.22-.66 2.9.34a1.57 1.57 0 0 1-.27 2.42zm7.86-13.7c-.2-.72-.3-1-.1-1.4a2.49 2.49 0 0 1 .39-.51.58.58 0 0 0-.26-.32l-1.12 1c-.6.52-1.1.86-1.28 1a.69.69 0 0 0 .23.36 7.83 7.83 0 0 1 .69-.41c.35-.17.55 0 .72.43.42 1 1.5 4.26 1.7 5l-.05.06-5-2.8c-.17-.1-.24-.23-.15-.38a3.83 3.83 0 0 1 .42-.58c0-.07-.2-.33-.28-.3s-.77.7-1.4 1.23l-1.43 1.13s.15.32.24.34a3.05 3.05 0 0 1 .54-.29c.4-.2.68-.1 1.5.34l4.4 2.45 1.65 1a6.07 6.07 0 0 1 .75-.63c-.17-.38-.4-1-.68-1.9l-1.5-4.83zm8.08-4.74l-1.77.45a1.56 1.56 0 0 1-1.61-.38 1.22 1.22 0 0 1 0-1.78 1.73 1.73 0 0 1 .95-.54c.37-.08.75.1 1.4.6.06 0 .3-.24.27-.3a19.13 19.13 0 0 1-1.17-1.52 15.2 15.2 0 0 0-1.66 1.35c-1.05 1.05-1.35 2.52-.3 3.57s2 .75 3.32.4 2-.33 2.48.2a1.19 1.19 0 0 1 0 1.78 2.2 2.2 0 0 1-1.15.65 3.06 3.06 0 0 1-2-.5c-.07 0-.25.32-.2.4a9.29 9.29 0 0 0 1.73 1.17 4.56 4.56 0 0 0 1.71-1.1c1.4-1.4 1.36-3 .4-3.94a2.31 2.31 0 0 0-2.41-.52z"></path><circle cx="90.77" cy="81.19" r="1.48" transform="matrix(.738573 -.674173 .674173 .738573 -31 82.41)"></circle><circle cx="208.17" cy="81.19" r="1.48" transform="matrix(.728491 -.685056 .685056 .728491 .91 164.66)"></circle><path d="M49.87 170.94l.1.58h4.48v-18.64H48.2v2.18l1.35-1.12v15.5l.33 1.5zm.78-17h2.75v16.52h-2.75zm5.7-4.16h-8.1L48.2 152h8.16zm16.37 21.74v-18.64h-8.86v18.64zm-3.8-17.58h2.76v16.52h-2.76zM66 155.62l1.85-1.67v16.52H66zm-3.67-5.84h12.3V152h-12.3zm-9.8 32.14h3.33v-.78h2.9l-8.13-6.57.58 2.5 3 2.45h-2.35zm180.28-10.4v-18.64h-8.86v18.64zm-3.8-17.58h2.75v16.52H229zm-2.9 1.67l1.5-1.67h.34v16.52h-1.85zm-3.7-5.83h12.3V152h-12.3zm26.76 20.68h-1.9v-16.52H250v10.9a101.12 101.12 0 0 0 .74-12h-8.54v18.64h6.8zm-3 0h-1.85v-14.84l1.52-1.67h.34zm4.57-18.46l-.06-2.22h-10V152zm-.47-9.2h-36.68v-.8h36.62l-.38-3h-22l2.36-2.36h19.3l-.23-1.27h-33.8l1-6.17-1.88-.2v-2.45h-.83L219.6 114h1.7v-4.36h-8v-8.24h.92v-2h-1.63v-.88h-3v.88h-1.77v.37H189.5v-.37h-1.63v-.88h-3v.88h-1.63v.37h-11c0-.94-.1-3.36-.54-3.13a6.66 6.66 0 0 1-4.56-.08s-1.27-4.52-4-4.36c-1.27 1.15-4.38 1.9-4.38 1.9a2.4 2.4 0 0 1-1.65-.9c1.28-1.05 1.77-4.2-1-3.87-1.82.58-1.24 2.6-1.24 2.6s-.85.3-1.85 2.07c.56-2.56-2.54-5.46-3.32-5.67-.32-1.15 2.05-2.45-1.16-3.75-2.76 1.23-.88 2.3-1 3.57-.63-.46-2.4-1.86-3.1-1.3s-.92 2.4-.92 2.4 1.17 5.86.74 6.1a2.23 2.23 0 0 0-2-1.54c-.18-.43 1.85-2.63-.4-3.56-2.77 0-1.58 3.4-1.58 3.4s-2.5 1.35-3 1.2-2.57-3.83-3.25-3.6c-1.24.43-.63 2.6-1.84 4.55a8.88 8.88 0 0 1-4.88 1.2c-.9 0-.9 1.9-.87 2.7h-11v-.37h-1.62v-.88h-3v.88h-1.63v.37H90.7v-.37h-1.63v-.88h-3v.88h-1.65v2h.92v7.3H84v1h-8.4V114h1.56l7.6 12.53H82.3v3l2.4 3.67v2.18h-35l-.23 1.26h35.25l-.06 2.36H49.14l-.38 3H84.6v.8H48.7c0 .42-.06.84-.1 1.26h36l-1.1 42.6h-1.3V188l-2.77.94-1.76 2.57h2v7h9.26v1.17h-11v2.45H73V185.3h1.16v-4.17H77l-8.15-6.58-9.1 6.52h3.08v4.22h1.1v19h14v5.37h-9.4l1.52 2.12h7.87v2h-6.3l.58.74h5.72v4.35h-2l.67.74h1.34v1.42l2 2.1v-1.22h9.68v6.78h-3.5l.9.74h2.65v8.1A103.6 103.6 0 0 0 207.22 239v-9.56h4.7l.9-.74h-5.6v-6.78h10.67v2.24l.1-.1.8-.76 3.07-3.18v-.22h.2l1.14-1.27h-1.34v-4.1h4.84l.58-.74h-5.42v-2h7l1.55-2.15h-8.52l2.12-5.35h9.9l1.3-2.15H233V185.3h1.17v-4.17h2.88l-8.15-6.6-7.1 5.08V144h28.5a8.38 8.38 0 0 0-.04-1.21zM68.8 176.56l3.7 3h-7.8zm-4.9 7.7v-2.33h9.17v2.33zm4 17.92h-1.5v-14.7l1.52-2.08zm4 0H69V185.4h2.9zM205.35 154v-14.3H203l1.42-1.42H208l-.45 17.26h-12.7l1.54-1.54zm-8.6-2.12v-10.06h6.48v10.07zm12-13.37H211v48h-3.5zM195.13 153l-.93.92v-14.74l.93-.93zm.68 3.8h11.68l-.5 17.9h-2.47a6 6 0 0 0-5.71-5.22 5.64 5.64 0 0 0-4.62 2.5V158.4zm9.6 31.26l-.8.28v-11.58h2.4l-.26 9.8h-1.3zm9.52 1.42v.8h-11.55l.16-.23 1.88-.56zM200 177.33v-5.55a4.17 4.17 0 0 1 2.58 4v1.58zm2.58 2.12v9.73l-1 1.43H200v-11.16zm-5.38-2.12V177c0-2.7.92-4 1.53-4.57v4.93zm1.53 2.12v11.17h-1.53v-11.17zm4.12 12.27v.92h-12.37l-1.18-.92zm-.54 2.2v3.43h-1v-3.44zm-2.22 0v3.43h-.95v-3.44zm-2.22 0v3.43h-.95v-3.44zm-2.22 0v3.43h-.94v-3.44zm-3.53 0h1.3v3.43h-1.3v-3.4zm-.5 4.77h24.67l1.1 1h-26.8zm24.67-1.34h-12.12v-4.87h12.12zm-1.38-9.66v.7h-8.4v-.7zm-1.53-52.85h-4.64V133l-2.12-3.46h7.7zm-4.9-34.72h4.9v.56h-4.9zm4 1.3v7.3h-3v-7.3zm-4.76 0h1.06v4.83h-1.06zm-1.94-.4h1.2v5.2h-1.2zm-1.95 0h1.2v5.2h-1.2zm-1.8 0h1.05v5.2l-1.05.84zm-4.86.37h3v7.3h-3zm-1.78-.37h1v5.2h-1zm-1.95 0h1.2v5.2h-1.2zm-1.95 0h1.2v5.2h-1.2zm-1.8 0h1.05v5.2l-1.05.84zm-4.88.37h3v7.3h-3zm-21 0h.92v-.4h18.4v.37h.92v7.3h-20.23zm-3.7 0h3v7.3h-3zm-21 0h.9v-.4h18.45v.37h.9v7.3h-20.24zm-3.7 0h3v7.3h-3zm-21 0h.92v-.4h18.4v.37h.92v7.3h-20.2zm-3.7 0h3v7.3h-3zm-1.83-.37h.18v.37h.92v4.83h-1.1zm-1.9 0h1.2v5.2H107zm-2 0h1.2v5.2H105zm-1.76 0h1v5.24l-1 .8zm-4.86.37h3v7.3h-3zm-1.8-.37h1.06v5.2h-1zm-1.94 0h1.2v5.2h-1.2zm-1.95 0h1.2v5.2H92.7zm-1.8 0H92v5.2l-1.05.84zm-5.78-.37v-.56H90v.56zm3.88.74v7.3h-3v-7.3zm-4.53 7.82h128v.47h-128zm-8.17 4.08v-2.87h144.25v2.87zm137.25 8v5.32H84.87v-5.32zM83 127.32h130.85v1.5H83zm85.33 102v-1.3h4v-3.52h-4l2.08-2.08h3.1v26.67h-5.17v-9.6h4v-10.15zm-2.95-14.2l-.1.2-3.6-1.9-4.43 1.9-.1-.2a13.5 13.5 0 0 0-3.42-4.16l4.37-4.1h7.32l3.54 4.18a13.64 13.64 0 0 0-3.54 4.13zm-8.13 28V237h8v6.23zm8 1.06v4.85h-8v-4.85zm-8-8v-6.78h8v6.78zm0-7.52v-6.78h8v6.78zm0-7.52v-5l4.4-1.88 3.6 1.9v5zm-7.64 8.15V228h4v-3.52h-4v-2.08h6v26.67h-6v-9.57h4v-10.15zm-6.78-8.8l1.85-1.85h10.92v1.85zm-11.33 22.7V237h8v6.23zm8 1.06v4.85h-8v-4.85zm-8-8v-6.78h8v6.78zm0-7.52v-6.78h8v6.78zm0-7.52v-5l4.06-1.9 3.95 1.9v5zm4.08-7.72l-4.08 1.92-.1-.2a13.37 13.37 0 0 0-3.61-4.31l4.2-4h7.33l3.68 4.35a13.66 13.66 0 0 0-3.38 3.9l-.1.2zm-11.73 15.87v-1.3h3.95v-3.52h-3.95v-2.08h6v26.67h-6v-9.65h3.95v-10.15zm-6.78-8.8l1.85-1.85h10.92v1.85zm14.5-66.58v-14.3h-2.33l1.43-1.42h3.2l-.45 17.26H121.1l1.55-1.53zm-8.6-2.12V141.8h6.5v10.07zm33.2 2.12v-14.3h-2.32l1.42-1.42h3.2l-.45 17.25H145.7l1.55-1.53zm-8.6-2.12V141.8H154v10.07zm11.67-14.64v-1.16h4.67v1.16zm3.52 62.43h0zm-21.35 0l1.16-1.17h20.14v1.17zm9.62 2.12l-1.58 7.36c-.23 0-.46-.06-.7-.06s-.5 0-.76.06l-1.58-7.36zm-8.08-7.94h1.3v3.55H143v-3.53zm2.58 3.55v-3.5h.94v3.55zm2.2 0v-3.5h1v3.55zm2.22 0v-3.5h.95v3.55zm2.22 0v-3.5h.95v3.55zm2.38 0v-5.1h8.16v5.1zm-.7-7.18l.15-.22 2-.65h6.73v.88zm1.46-2.17l.12-11.34h2l-.26 9.88H156v1.28zm1.6.35v-.87h5.8v.87zm1-1.8l1.26-48.13h3.52v48.13zm1.3-51.83v-1.82l-2.12-3.46h6.83v5.27zM146 153l-.93.92v-14.74l.93-.93zm.67 3.8H158l-.47 17.92h-2.14a6 6 0 0 0-5.71-5.22A5.64 5.64 0 0 0 145 172v-13.58zm4.2 20.53v-5.56a4.17 4.17 0 0 1 2.58 4v1.58zm2.55 2.12l-.1 9.4-1.2 1.76h-1.27v-11.17zm-5.4-2.13V177c0-2.7.92-4 1.54-4.57v4.93zm1.54 2.12v11.17H148v-11.17zm3.9 12.27v.92H141.3l-1.18-.92zm-7.8 10.13l1.6 7.45a9.52 9.52 0 0 0-3.65 1.52l-3.93-4.64h-8l-4.55 4.28a8.15 8.15 0 0 0-3.34-1.22l1.6-7.38zm-16.38-11.57l.16-.23 2-.65h6.74v.88zm8.86 2.07v5.1H130v-5.1zm-7.3-4.2v-11.38h2.05l-.25 9.88h-1.24V188zm1.5.32v-.87h5.8v.87zm1-1.8l1.24-48.13h3.52v48.13zm1.27-49.4v-1.16h4.67v1.16zm4.7-2.43h-4.68V133l-2.12-3.46h6.82zm-18 18.18l-.94.92v-14.75l.94-.94zm.68 3.8h11.35l-.46 17.92h-2.16a6 6 0 0 0-5.71-5.22 5.65 5.65 0 0 0-4.63 2.54V158.4zm4.2 20.53v-5.56a4.17 4.17 0 0 1 2.58 4v1.58zm2.58 2.12v9.28l-1.3 1.9h-1.27v-11.2zm-5.38-2.12V177c0-2.7.92-4 1.54-4.57v4.93zm1.54 2.12v11.17h-1.54v-11.2zm3.9 12.27v.92h-12.1l-1.18-.92zm-.33 2.2v3.55h-1v-3.58zm-2.22 0v3.55h-.94v-3.58zm-2.2 0v3.55h-.95v-3.58zm-2.22 0v3.55h-.95v-3.58zm-3.53 0h1.3v3.55h-1.28v-3.53zm-.37 4.65h20.14v1.17h-21.3zm6.67 3.3l-1.57 7.3H123a8.37 8.37 0 0 0-1.34.1l-1.6-7.4zm17.92 37.66h4v-10.18h-4v-1.3h4v-3.52h-4l2.08-2.08h3.1v26.67h-5.17zm23.24-33.33h-8l-4.68 4.4a8.31 8.31 0 0 0-3-1.27l1.6-7.47H172l1.58 7.37a9.13 9.13 0 0 0-4 1.45zm15-52.2v-14.3h-2.32l1.43-1.42h3.2l-.45 17.26H170.3l1.55-1.53zm-8.6-2.12v-10.06h6.48v10.07zm6.3 38.38l.16-.23 2-.65h6.74v.88zm8.86 2.07v5.1h-8.16v-5.1zm-7.3-4.25v-11.3h2l-.26 9.88h-1.2v1.3zm1.5.37v-.87h5.8v.87zm1-1.8l1.26-48.13h3.52v48.13zm-12-33.65l-.94.92V139.2l.94-.94zm.68 3.8h11.34l-.47 17.92H180a6 6 0 0 0-5.71-5.22 5.65 5.65 0 0 0-4.64 2.54v-13.62zm4.18 20.53v-5.56a4.17 4.17 0 0 1 2.58 4v1.58zm2.58 2.12v9.27l-1.3 1.9h-1.24v-11.17zm-5.38-2.12V177c0-2.7.92-4 1.53-4.56v4.93zm1.53 2.12v11.17h-1.5v-11.17zm3.9 12.27v.92h-12.1l-1.18-.92zm-.33 2.2v3.55h-.95v-3.56zm-2.22 0v3.55h-1v-3.56zm-2.22 0v3.55h-.94v-3.56zm-2.2 0v3.55h-.95v-3.56zm-3.53 0h1.3v3.55h-1.28v-3.53zm5.25 7.94h4.62l-1.6 7.42a7.7 7.7 0 0 0-1.27-.12h-.2zm-6.74-2.13l1.17-1.17h20.15v1.17zm17.83-62.47v-1.16h4.66v1.16zm0-2.43V133l-2.12-3.46h6.82v5.27zM107 154v-14.3h-2.32l1.42-1.42h3.2l-.46 17.26H96.5L98 154zm-8.6-2.12v-10.06h6.48v10.07zm6.3 38.38l.16-.23 2-.65h6.73v.88zm8.86 2.07v5.1h-8.16v-5.1zm-7.3-4.16v-11.4h2l-.26 9.88h-1.2V188zm1.5.27v-.87h5.8v.87zm1-1.8l1.24-48.1h3.52v48.13zm-12-33.63l-.93.92V139.2l.93-.93zm.68 3.8h11.33l-.48 17.92h-2.12a6 6 0 0 0-5.71-5.22 5.65 5.65 0 0 0-4.64 2.49v-13.58zm4.18 20.53v-5.56a4.17 4.17 0 0 1 2.58 4v1.56zm2.55 2.12v9.3l-1.28 1.86h-1.27v-11.17zm-5.35-2.12V177c0-2.7.92-4 1.53-4.57v4.93zm1.53 2.12v11.17H98.8v-11.18zm3.9 12.27v.92H92.12l-1.18-.92zm-.34 2.2v3.57h-.9v-3.6zm-2.22 0v3.57h-.94v-3.6zm-2.2 0v3.57h-1v-3.6zm-2.22 0v3.57h-.94v-3.6zm-3.53 0h1.3v3.57h-1.28v-3.55zm-.37 4.65h20.2v1.17H92.22zM110 137.25v-1.16h4.67v1.16zm0-2.43V133l-2.12-3.46h6.82v5.27zm-26.8-5.27h6.94v5.27h-4.67V133zm5.73 67.9h-8.15v-5.1h8.16zm0-7.18h-8.85l.16-.23 2-.66h6.74zm0-1.82h-5.8v-.87h5.8zm0-1.8h-4.75l1.24-48.13h3.52zm-3.5-49.4v-1.16h4.66v1.16zM80 201.84h39.28l1.63 7.57a9.92 9.92 0 0 0-3.86 2l-3.64-5.2h-11.8l-2.8 7.34a4.65 4.65 0 0 0-3-1.15h-.07a5.37 5.37 0 0 0-2.91 1l-2.72-7.16H80zm16.63 30.5v.75H93.7v-10.64l2.8-4.53zm-6.95-14.55v3.4H80v-7h8.14l2.24 1.9a9 9 0 0 0-.71 1.71zm-1.28-4.3H80v-6.6h9.6l2.62 6.9a7.78 7.78 0 0 0-1.47 1.69zm12 27.75a101.48 101.48 0 0 1-9.55-6h9.55zm0-8.14h-1.87V218h1.87zm.82-16l3.78-2.9h5.44l3.3 2.5v4.45H101.5v-3.35l-.3-.7zm.3 11.6v-6.78h12.22v6.78zm12.22.74v6.78H101.5v-6.78zm-12.23 12.4V237h12.22v6.4h-9.3q-1.5-.76-2.93-1.54zm12.25 5.62l-7.83-3.36h7.83zm.08-32.3l-.1.2v.46l-3-2.32h-5.94l-3.8 2.92a8.83 8.83 0 0 0-1.54-2.35l2.72-7.15H113l3.46 5a14.19 14.19 0 0 0-2.63 3.25zm3 33.4v-9h4v-10.2h-4v-1.3h4v-3.52h-4l2.08-2.08h3.1v26.67h-3.44zm32.63 5.45a100.8 100.8 0 0 1-28.58-4.12H178a100.74 100.74 0 0 1-28.54 4.12zm32-10.3v5.1l-1 .34h-5v-9.64h3.95v-10.15h-3.95v-1.3h3.95v-3.52h-3.95v-2.08h6zm0-23.13h-12.8l1.85-1.85h10.92zm1.65 27.67v-4.1h9.9a100.73 100.73 0 0 1-9.91 4.1zm12.28-5.3l-.84.44H183.1V237h12.28zm0-6.7h-12.3v-6.78h12.3zm0-7.52h-12.3v-6.78h12.3zm0-10.9v3.4h-12.3v-4l3.83-2.92h5.43l3.4 2.6a9 9 0 0 0-.36.93zm-2.78-4.3h-5.94l-3.58 2.73v-.86l-.1-.2a14.78 14.78 0 0 0-2.27-3.1l3.6-5.17h10.9l2.64 6.93a8 8 0 0 0-1.79 2.31zm13.5 23.05a102.46 102.46 0 0 1-9.65 5.81v-7.15h9.65zm-6.7-3.45v-10.65l2.92-4.5v15.13zm6.7 0h-1.88V218h1.88zm11.77-11.9h-10.67v-3.38a13.29 13.29 0 0 0-.54-1.37l2.56-2.2h8.68zm0-7.7h-9l-2.64 2.25a8.17 8.17 0 0 0-1.25-1.74l2.7-7.1h10.13zm0-7.33h-10.65l-2.77 7.3a4.62 4.62 0 0 0-3-1.11 5.39 5.39 0 0 0-3 1l-2.74-7.2H184l-3.75 5.37a9 9 0 0 0-3.67-2.09l1.63-7.6h39.73zm10.1-4h-1.52v-14.7l1.53-2.08zm4 0h-3v-16.8h3zm-3.1-25.6l3.7 3h-7.8zm-4.9 5.36h9.17v2.33H224zm-1.06-.83v4.22H224v16.84h-2.18v-21.1zm24.83-4.07l.4-1.72-1-.77-9.1 6.52h3.1v4.22h1.76l.38-1.06h-1.07v-2.33h4.17l.7-2.4H243l4.13-3zM114.52 76.3l-.8.44-1.14.63-.88.52-1.1.7-.78.47-.32-.54.34-.24c.68-.47.9-.76.24-1.92L107 71c-.7-1.18-1-1.08-1.78-.63l-.34.2-.32-.56A9.2 9.2 0 0 0 107 67.5l.4-.23 4.6 7.93c.67 1.16 1 1.1 1.8.74l.37-.18zm16.85-14.98c-.3-1.6.75-3.2 2.86-3.57 2.32-.42 3.6.74 3.8 1.86a2.77 2.77 0 0 1-1.34 2.61 3.63 3.63 0 0 1 2.65 2.68 3.51 3.51 0 0 1-3.12 4.1c-2.18.4-4-.46-4.27-2.15a3 3 0 0 1 1.77-3 3.47 3.47 0 0 1-2.36-2.53zm4.7.68a2.51 2.51 0 0 0 .41-1.92 1.81 1.81 0 0 0-2.22-1.59 1.49 1.49 0 0 0-1.39 1.69c.2 1.16 1.75 1.5 2.7 1.7zm-1.64 2.08a3 3 0 0 0-.72 2.43 2 2 0 0 0 2.4 1.78 1.92 1.92 0 0 0 1.78-2.12c-.26-1.45-2-1.8-3.12-2zm30.1 5.06l-.9-.17-1.28-.25-1-.17-1.3-.18-.9-.13.1-.62h.4c.83.07 1.2 0 1.4-1.32l1-6.1c.23-1.35-.07-1.47-1-1.62l-.4-.07.1-.64a9.21 9.21 0 0 0 3.54-.34l.46.08-1.53 9.06c-.22 1.32.1 1.5.9 1.7l.4.1zm25.6 2.26a3.15 3.15 0 0 1 1 4.37 3.83 3.83 0 0 1-5.24 1.66c-1.4-.8-2.67-2.83-.6-6.46 2.5-4.4 5.52-3.9 7-3.06s1.6 1.94 1.3 2.5a.93.93 0 0 1-1.27.36 1.19 1.19 0 0 1-.48-1.3c0-.47 0-.93-.43-1.2s-1.58-.5-3.33 2.75a3.06 3.06 0 0 1 2.06.38zm-3.64 2.26c-.7 1.2-1.34 2.6-.32 3.16s2-.65 2.58-1.73 1.53-2.55.35-3.22a1.65 1.65 0 0 0-1.59.06l-1.03 1.74z"></path></g></svg>